<?xml version="1.0" standalone="no"?>
<!DOCTYPE svg PUBLIC "-//W3C//DTD SVG 20010904//EN"
 "http://www.w3.org/TR/2001/REC-SVG-20010904/DTD/svg10.dtd">
<svg version="1.0" xmlns="http://www.w3.org/2000/svg"
 width="417.000000pt" height="530.000000pt" viewBox="0 0 417.000000 530.000000"
 preserveAspectRatio="xMidYMid meet">
<metadata>
Created by potrace 1.16, written by Peter Selinger 2001-2019
</metadata>
<g transform="translate(0.000000,530.000000) scale(0.100000,-0.100000)"
fill="#000000" stroke="none">
<path d="M1535 5283 c-206 -26 -402 -71 -535 -120 -103 -38 -327 -149 -375
-185 -16 -13 -57 -43 -90 -68 -202 -151 -389 -381 -487 -600 -44 -98 -46 -130
-15 -185 33 -59 86 -85 173 -85 80 0 124 21 157 75 10 17 52 84 93 150 207
334 544 543 999 621 75 13 159 18 335 18 254 0 357 -13 556 -70 106 -30 315
-129 387 -183 175 -130 299 -289 367 -474 54 -148 64 -212 64 -417 1 -180 -2
-203 -27 -298 -81 -311 -230 -539 -492 -754 -74 -61 -254 -178 -273 -178 -4 0
-15 12 -24 28 -29 47 -150 166 -228 224 -154 115 -366 204 -542 230 l-88 12 0
697 c0 682 0 697 -20 722 -32 41 -99 61 -179 54 -74 -6 -114 -22 -146 -57 -20
-22 -20 -38 -23 -720 l-3 -697 -57 -13 c-166 -36 -319 -134 -380 -243 -126
-224 -100 -463 72 -645 77 -81 189 -144 297 -166 l64 -13 6 -499 c3 -274 7
-661 8 -860 1 -358 1 -361 24 -395 64 -95 277 -86 325 15 11 22 14 184 13 872
l-2 844 71 0 c134 0 424 56 597 115 39 14 73 25 76 25 2 0 17 -28 32 -62 15
-35 47 -105 71 -156 24 -51 44 -95 44 -97 0 -2 28 -64 61 -137 34 -73 99 -216
144 -318 266 -596 340 -725 520 -905 151 -150 324 -252 545 -320 206 -63 372
-73 437 -27 45 32 66 105 54 184 -18 107 -52 133 -193 148 -126 13 -224 41
-344 100 -118 57 -204 122 -292 223 -72 81 -201 290 -266 429 -24 51 -60 129
-81 173 -21 44 -64 139 -95 210 -159 358 -195 439 -245 547 -30 64 -56 127
-58 139 -2 19 10 30 61 59 304 172 586 460 732 750 157 311 216 714 155 1060
-53 299 -219 598 -443 795 -249 220 -586 361 -1002 420 -97 13 -451 19 -535 8z
m100 -2650 c111 -34 239 -104 326 -177 41 -34 74 -66 74 -71 0 -23 -313 -93
-457 -102 l-88 -6 0 196 0 197 33 -7 c17 -3 68 -17 112 -30z m-515 -159 c0
-181 1 -180 -63 -148 -146 74 -142 236 8 305 21 9 43 15 47 13 4 -3 8 -79 8
-170z"/>
</g>
</svg>
