<?xml version="1.0" standalone="no"?>
<!DOCTYPE svg PUBLIC "-//W3C//DTD SVG 20010904//EN"
 "http://www.w3.org/TR/2001/REC-SVG-20010904/DTD/svg10.dtd">
<svg version="1.0" xmlns="http://www.w3.org/2000/svg"
 width="1029.000000pt" height="175.000000pt" viewBox="0 0 1029.000000 175.000000"
 preserveAspectRatio="xMidYMid meet">
<metadata>
Created by potrace 1.16, written by Peter Selinger 2001-2019
</metadata>
<g transform="translate(0.000000,175.000000) scale(0.100000,-0.100000)"
fill="#000000" stroke="none">
<path d="M442 1730 c-192 -37 -327 -134 -415 -298 -23 -43 -19 -73 14 -91 42
-23 76 -8 101 46 35 75 120 153 213 193 l80 35 170 0 c163 -1 173 -2 237 -29
91 -38 150 -92 190 -174 31 -63 33 -73 33 -177 0 -109 0 -110 -39 -179 -22
-38 -53 -85 -69 -103 -30 -34 -140 -116 -165 -124 -7 -2 -35 17 -62 42 -53 50
-117 85 -190 104 l-45 12 -3 246 c-2 238 -3 247 -23 258 -27 14 -85 3 -93 -17
-3 -9 -6 -123 -6 -253 l0 -238 -39 -11 c-79 -24 -137 -127 -117 -208 10 -38
75 -103 119 -118 l38 -13 2 -278 2 -278 28 -10 c15 -5 38 -6 51 -3 44 11 49
45 41 309 l-7 244 32 7 c18 3 42 6 55 6 12 0 52 9 89 21 37 12 68 20 70 18 1
-2 37 -80 80 -174 101 -220 147 -298 216 -366 65 -63 122 -93 221 -116 66 -14
71 -14 89 2 23 21 27 73 8 97 -7 9 -40 21 -73 27 -69 13 -154 61 -199 112 -17
20 -48 72 -70 115 -21 44 -63 126 -92 184 -84 168 -83 152 -11 204 220 159
310 346 280 584 -13 95 -54 173 -139 258 -130 129 -360 180 -602 134z m-76
-967 c-2 -2 -14 0 -25 7 -28 14 -27 55 2 75 22 15 22 15 25 -31 2 -25 1 -48
-2 -51z m205 82 c55 -19 108 -60 94 -73 -9 -9 -123 -32 -158 -32 -14 0 -17 11
-17 60 0 68 4 71 81 45z"/>
<path d="M3702 1724 c-22 -15 -22 -17 -22 -295 l0 -280 -21 12 c-13 6 -54 10
-103 7 -203 -8 -366 -156 -450 -407 -52 -156 -58 -258 -23 -401 30 -125 62
-185 122 -235 54 -43 157 -77 213 -68 92 14 158 63 260 193 l20 24 21 -70 c13
-45 31 -79 49 -97 31 -30 118 -67 156 -67 29 0 66 43 66 76 0 31 -33 64 -65
64 -38 0 -71 26 -91 73 -17 39 -19 99 -25 742 -3 385 -9 707 -13 717 -7 14
-35 28 -61 28 -6 0 -21 -7 -33 -16z m-53 -690 l31 -6 0 -244 0 -243 -31 -86
c-37 -103 -77 -165 -142 -218 -39 -34 -56 -41 -101 -45 -44 -3 -62 0 -95 19
-54 30 -67 52 -91 151 -35 145 -26 269 29 413 24 63 44 93 89 142 97 102 198
139 311 117z"/>
<path d="M9066 1711 c-16 -17 -17 -72 -14 -747 3 -720 3 -730 24 -774 33 -69
89 -116 158 -134 52 -14 63 -14 82 -2 43 29 36 111 -11 121 -14 3 -36 7 -50
10 -35 7 -62 40 -69 83 -3 20 -6 352 -6 738 0 531 -3 703 -12 712 -19 19 -82
15 -102 -7z"/>
<path d="M9437 1712 c-16 -17 -17 -88 -17 -820 l0 -802 25 -16 c30 -19 81 -11
95 16 6 11 10 107 10 222 l0 204 55 56 54 57 74 -147 c89 -179 127 -239 200
-318 65 -71 170 -125 253 -132 45 -4 53 -1 68 19 37 54 10 104 -62 111 -140
14 -246 144 -392 480 l-33 77 36 44 c20 25 102 110 182 190 94 94 145 153 145
166 0 23 -52 61 -82 61 -10 0 -125 -109 -257 -242 l-240 -243 -1 498 c0 324
-4 505 -10 518 -14 26 -80 26 -103 1z"/>
<path d="M8103 1689 c-23 -11 -58 -40 -78 -64 -71 -88 -98 -182 -115 -410 -7
-82 -15 -190 -20 -240 -12 -144 -48 -360 -70 -425 -11 -33 -20 -69 -20 -80 0
-25 -44 -185 -66 -241 -9 -21 -20 -39 -25 -39 -21 0 -66 94 -106 216 -40 125
-113 431 -113 474 0 11 -7 53 -15 93 -22 110 -45 289 -52 417 -3 63 -10 121
-16 128 -5 6 -31 12 -58 12 -57 0 -69 -14 -69 -87 0 -26 -5 -77 -11 -113 -6
-36 -14 -99 -19 -140 -15 -125 -37 -262 -53 -325 -8 -33 -18 -80 -22 -105 -8
-54 -70 -306 -92 -372 -20 -64 -85 -191 -99 -195 -21 -7 -63 127 -98 312 -47
247 -63 361 -86 640 -21 254 -29 304 -60 364 -37 74 -147 151 -214 151 -29 0
-38 -5 -51 -30 -30 -58 -14 -87 62 -108 55 -16 100 -68 107 -124 3 -24 10
-110 16 -193 16 -217 38 -428 55 -520 8 -44 24 -134 35 -200 12 -66 29 -142
39 -170 80 -220 96 -250 147 -271 82 -35 146 19 218 183 86 194 114 299 161
592 13 85 26 156 29 158 2 2 7 -20 11 -49 3 -29 20 -123 36 -208 95 -497 218
-733 352 -677 77 33 129 141 189 392 22 94 45 186 50 205 5 19 13 73 18 120 5
47 14 121 19 165 6 44 13 114 15 155 8 131 26 303 37 358 12 60 45 105 99 132
53 27 66 73 34 118 -19 27 -47 28 -101 1z"/>
<path d="M1670 1171 c-75 -24 -168 -103 -209 -176 -37 -66 -39 -89 -7 -110 35
-23 73 -10 101 35 48 75 137 129 215 130 85 0 140 -58 140 -148 l0 -38 -92
-28 c-107 -31 -276 -111 -330 -156 -21 -17 -60 -61 -88 -97 -40 -54 -53 -81
-66 -141 -31 -139 -6 -228 89 -320 75 -73 187 -84 302 -28 60 28 79 44 130
110 32 42 62 73 66 68 4 -4 14 -31 24 -61 23 -70 76 -124 138 -139 67 -17 94
-15 111 10 34 48 9 102 -52 111 -41 7 -75 36 -91 80 -7 18 -11 144 -11 341 0
172 -5 338 -10 367 -14 75 -56 139 -110 169 -37 20 -61 25 -135 27 -49 1 -101
-1 -115 -6z m243 -448 c9 -16 -22 -220 -41 -271 -44 -114 -119 -203 -205 -243
-115 -52 -217 9 -217 129 0 154 117 273 359 363 81 30 97 33 104 22z"/>
<path d="M2580 1163 c-71 -25 -129 -70 -172 -137 l-39 -61 2 85 c2 47 -1 91
-5 98 -12 20 -80 15 -100 -7 -17 -18 -18 -53 -12 -524 3 -277 8 -512 12 -521
14 -36 92 -27 114 14 7 14 10 114 8 313 -3 285 -2 294 21 365 30 91 83 168
145 209 121 82 216 56 253 -67 19 -62 21 -264 3 -360 -58 -326 -41 -428 84
-499 68 -39 135 -50 159 -26 20 19 23 88 5 103 -7 6 -30 13 -51 17 -85 16
-114 75 -98 197 6 40 19 132 30 203 24 155 26 212 7 326 -18 110 -42 163 -97
215 -73 69 -174 90 -269 57z"/>
<path d="M4254 1151 c-87 -41 -137 -91 -190 -188 -65 -118 -87 -209 -88 -358
-1 -178 38 -307 128 -424 58 -76 155 -123 258 -124 62 -1 83 3 141 30 79 38
155 112 192 187 60 125 88 331 66 476 -14 91 -64 204 -102 231 -23 16 -27 25
-23 48 10 47 -69 104 -191 137 -77 21 -123 17 -191 -15z m156 -108 c0 -4 -8
-16 -19 -27 -33 -37 -35 -63 -6 -92 24 -24 32 -26 83 -21 31 3 66 8 77 12 18
5 24 -1 42 -42 28 -65 41 -123 48 -218 8 -96 -19 -244 -58 -321 -31 -60 -91
-117 -142 -134 -59 -19 -138 -8 -188 26 -111 77 -166 315 -122 525 17 81 72
193 115 234 39 37 170 82 170 58z"/>
<path d="M5223 1170 c-48 -11 -124 -70 -161 -125 -19 -28 -37 -51 -42 -53 -4
-2 -6 23 -3 55 3 32 0 70 -6 86 -9 24 -16 27 -55 27 -25 0 -48 -5 -51 -10 -4
-6 -6 -246 -6 -533 1 -475 3 -523 18 -534 24 -18 57 -16 84 6 l23 18 -3 294
-2 294 37 104 c33 92 45 112 98 169 55 57 66 64 108 69 41 5 50 2 71 -21 14
-15 35 -54 47 -87 23 -60 23 -68 21 -444 -1 -339 0 -385 14 -399 30 -29 102
-10 110 28 2 12 6 158 9 326 6 349 9 366 84 481 90 138 198 160 265 55 25 -40
27 -54 33 -177 4 -100 2 -160 -10 -234 -46 -280 -43 -355 14 -434 34 -47 109
-88 174 -97 39 -6 46 -4 61 19 11 18 15 36 10 56 -8 37 -19 46 -73 61 -24 6
-52 20 -62 30 -38 38 -38 50 6 385 32 246 -5 452 -97 529 -82 70 -162 82 -248
40 -56 -28 -143 -110 -168 -158 -17 -32 -26 -27 -42 24 -17 54 -69 110 -125
136 -53 25 -78 27 -133 14z"/>
<path d="M8473 1166 c-53 -17 -161 -93 -195 -138 -15 -19 -33 -52 -42 -73 -15
-34 -15 -40 -1 -62 11 -17 25 -23 49 -23 34 0 48 11 99 84 10 15 41 40 70 56
43 24 63 30 115 30 35 0 72 -5 84 -11 26 -14 48 -68 48 -121 l0 -43 -88 -28
c-99 -33 -245 -100 -313 -146 -62 -41 -132 -133 -165 -215 -23 -58 -26 -77
-22 -144 5 -90 28 -140 91 -206 32 -33 56 -48 101 -61 121 -35 236 9 339 131
l62 72 31 -67 c40 -87 83 -124 164 -141 l63 -13 24 27 c12 15 23 33 23 41 0
22 -22 65 -34 66 -61 4 -103 25 -123 61 -16 30 -18 65 -18 358 -1 179 -5 348
-9 375 -9 58 -45 125 -82 154 -58 46 -186 63 -271 37z m226 -536 c-11 -111
-23 -159 -61 -236 -59 -121 -163 -203 -256 -204 -115 0 -159 76 -126 220 14
61 23 80 58 115 73 75 188 142 311 180 39 12 73 19 76 16 4 -3 3 -44 -2 -91z"/>
</g>
</svg>
